<?xml version="1.0" encoding="utf-8"?>
<!-- Generator: Adobe Illustrator 26.0.1, SVG Export Plug-In . SVG Version: 6.00 Build 0)  -->
<svg version="1.1" id="Lager_1" xmlns="http://www.w3.org/2000/svg" xmlns:xlink="http://www.w3.org/1999/xlink" x="0px" y="0px"
	 viewBox="0 0 50 50" style="enable-background:new 0 0 50 50;" xml:space="preserve">
<style type="text/css">
	.st0{fill:#32436C;stroke:#32436C;stroke-width:0.75;stroke-miterlimit:10;}
</style>
<path class="st0" d="M14.22,4.76c-2.85,0-5.28,2.03-5.73,4.78C8.49,9.6,8.44,9.65,8.44,9.72h0.03c-0.03,0.15-0.07,0.29-0.09,0.43
	c-0.3,0.21-0.59,0.43-0.83,0.67c-1.15,1.16-1.64,2.63-1.99,3.83c0,0.01,0,0.02,0,0.03c-1.27,3.91-3.55,13.16-4.07,15.28
	c-0.61,1.28-0.98,2.69-0.98,4.19c0,5.4,4.4,9.8,9.8,9.8c5.28,0,9.57-4.2,9.77-9.43c1.11,0.82,2.72,1.59,4.93,1.59
	s3.82-0.77,4.93-1.59c0.2,5.23,4.49,9.43,9.77,9.43c5.4,0,9.8-4.4,9.8-9.8c0-1.11-0.18-2.16-0.52-3.15
	c-0.16-0.64-3.05-12.14-4.32-16.32v-0.03c-0.4-1.19-0.93-2.66-2.08-3.83c-0.29-0.29-0.61-0.56-0.98-0.8
	c-0.02-0.1-0.03-0.2-0.06-0.31h0.03c-0.01-0.07-0.05-0.12-0.06-0.18c-0.44-2.75-2.87-4.78-5.73-4.78c-3.26,0-5.88,2.62-5.88,5.88
	c0,0.72,0.12,1.42,0.34,2.05c-0.46,0.53-0.84,1.01-1.1,1.26c-0.11,0.1-0.12,0.1-0.15,0.12c-1.11-0.82-2.46-1.38-3.89-1.38
	c-1.43,0-2.83,0.51-3.92,1.38c-0.04-0.02-0.04-0.02-0.15-0.12c-0.29-0.27-0.72-0.79-1.22-1.38c0.2-0.6,0.31-1.25,0.31-1.93
	C20.1,7.38,17.48,4.76,14.22,4.76z M14.22,6.72c2.23,0,3.92,1.69,3.92,3.92c0,0.08-0.03,0.16-0.03,0.24
	c-1.24-1.07-2.84-2.02-4.96-2.02c-0.95,0-1.8,0.09-2.54,0.28C11.15,7.71,12.55,6.72,14.22,6.72z M35.78,6.72
	c1.66,0,3.03,0.98,3.58,2.39c-0.69-0.16-1.44-0.24-2.3-0.24c-2.2,0-3.9,1.02-5.17,2.14c-0.01-0.13-0.03-0.24-0.03-0.37
	C31.86,8.41,33.55,6.72,35.78,6.72z M13.15,10.82c1.96,0,3.31,1.05,4.44,2.23c0.15,0.16,0.29,0.31,0.44,0.47
	c0.15,0.16,0.3,0.32,0.45,0.48c0.42,0.49,0.82,0.96,1.22,1.35c0.28,0.26,0.56,0.51,1.01,0.64c0.45,0.13,1.08,0.03,1.47-0.28
	l0.03-0.03c0.65-0.58,1.86-1.04,2.88-1.04c0.97,0,1.98,0.38,2.77,0.97c0.05,0.03,0.13,0.07,0.13,0.07s1.03,0.44,1.47,0.31
	c0.45-0.14,0.7-0.38,0.98-0.64c0.41-0.39,0.82-0.88,1.26-1.38c0.11-0.11,0.22-0.22,0.33-0.35c0.12-0.13,0.23-0.26,0.34-0.39
	c1.18-1.26,2.62-2.42,4.68-2.42c1.29,0,2.21,0.2,2.91,0.52c0.12,0.12,0.27,0.2,0.43,0.24c0.03,0.01,0.06,0.02,0.09,0.03
	c0.26,0.17,0.5,0.38,0.7,0.58c0.77,0.78,1.21,1.88,1.59,3.03c0,0.01,0,0.02,0,0.03c0.75,2.5,2.01,7.25,3.03,11.24
	c-1.68-1.35-3.81-2.14-6.12-2.14c-4.44,0-8.2,2.98-9.4,7.04c-0.07,0.06-0.13,0.13-0.18,0.21c0,0-1.26,2.54-5.11,2.54
	s-5.11-2.54-5.11-2.54c-0.05-0.09-0.11-0.17-0.18-0.24c-1.21-4.05-4.97-7.01-9.4-7.01c-2.22,0-4.26,0.74-5.91,1.99
	c1.01-3.98,2.24-8.66,3.03-11.08v-0.03c0.33-1.14,0.73-2.25,1.5-3.03C9.7,11.41,10.89,10.82,13.15,10.82z M25,24.35
	c-2.15,0-3.92,1.76-3.92,3.92s1.76,3.92,3.92,3.92s3.92-1.76,3.92-3.92S27.15,24.35,25,24.35z M10.3,26.31
	c4.34,0,7.84,3.5,7.84,7.84s-3.5,7.84-7.84,7.84s-7.84-3.5-7.84-7.84c0-0.59,0.06-1.16,0.18-1.71c0.04-0.11,0.08-0.23,0.12-0.36
	c0.03-0.12,0.06-0.23,0.08-0.34c0.06-0.15,0.12-0.31,0.18-0.47c0.1-0.24,0.2-0.47,0.29-0.69C4.62,28.04,7.26,26.31,10.3,26.31z
	 M25,26.31c1.09,0,1.96,0.86,1.96,1.96s-0.86,1.96-1.96,1.96s-1.96-0.86-1.96-1.96S23.91,26.31,25,26.31z M39.7,26.31
	c3.41,0,6.3,2.17,7.38,5.2c0,0.02,0.09,0.34,0.09,0.34c0.03,0.1,0.07,0.19,0.12,0.28c0.17,0.64,0.24,1.32,0.24,2.02
	c0,4.34-3.5,7.84-7.84,7.84s-7.84-3.5-7.84-7.84S35.36,26.31,39.7,26.31z M5.31,33.14c-0.04,0.01-0.08,0.02-0.12,0.03
	c-0.46,0.1-0.78,0.51-0.77,0.98c0,3.26,2.62,5.88,5.88,5.88c0.35,0,0.68-0.18,0.86-0.49c0.18-0.31,0.18-0.68,0-0.99
	c-0.18-0.31-0.51-0.49-0.86-0.49c-2.23,0-3.92-1.69-3.92-3.92c0.01-0.28-0.1-0.55-0.31-0.75C5.87,33.21,5.59,33.11,5.31,33.14z
	 M35.68,33.14c-0.04,0.01-0.08,0.02-0.12,0.03c-0.46,0.1-0.78,0.51-0.77,0.98c0,3.26,2.62,5.88,5.88,5.88
	c0.35,0,0.68-0.18,0.86-0.49c0.18-0.31,0.18-0.68,0-0.99c-0.18-0.31-0.51-0.49-0.86-0.49c-2.23,0-3.92-1.69-3.92-3.92
	c0.01-0.28-0.1-0.55-0.31-0.75C36.24,33.21,35.96,33.11,35.68,33.14z"/>
</svg>
